HIERARCHY
ROOT Hips
{
  OFFSET -331.093 83.8371 -317.828
  CHANNELS 6 Xposition Yposition Zposition Zrotation Xrotation Yrotation
  JOINT LeftUpLeg
  {
    OFFSET 8.64259 1.95398 -2.38835
    CHANNELS 3 Zrotation Xrotation Yrotation
    JOINT LeftLeg
    {
      OFFSET 43.7702 0 0
      CHANNELS 3 Zrotation Xrotation Yrotation
      JOINT LeftFoot
      {
        OFFSET 40.6238 0 0
        CHANNELS 3 Zrotation Xrotation Yrotation
        JOINT LeftToeBase
        {
          OFFSET 12.7242 0 0
          CHANNELS 3 Zrotation Xrotation Yrotation
          End Site
          {
            OFFSET 0 0 0
          }
        }
      }
    }
  }
  JOINT RightUpLeg
  {
    OFFSET -8.2249 1.95398 -2.59336
    CHANNELS 3 Zrotation Xrotation Yrotation
    JOINT RightLeg
    {
      OFFSET 43.5653 0 0
      CHANNELS 3 Zrotation Xrotation Yrotation
      JOINT RightFoot
      {
        OFFSET 40.6238 0 0
        CHANNELS 3 Zrotation Xrotation Yrotation
        JOINT RightToeBase
        {
          OFFSET 12.7242 0 0
          CHANNELS 3 Zrotation Xrotation Yrotation
          End Site
          {
            OFFSET 0 0 0
          }
        }
      }
    }
  }
  JOINT Spine
  {
    OFFSET 0.165834 0.87714 6.61349
    CHANNELS 3 Zrotation Xrotation Yrotation
    JOINT Spine1
    {
      OFFSET 7.38963 1.71661e-005 0
      CHANNELS 3 Zrotation Xrotation Yrotation
      JOINT Spine2
      {
        OFFSET 11.9445 1.14441e-005 0
        CHANNELS 3 Zrotation Xrotation Yrotation
        JOINT Spine3
        {
          OFFSET 14.7254 4.19617e-005 0
          CHANNELS 3 Zrotation Xrotation Yrotation
          JOINT Spine4
          {
            OFFSET 10.9679 0 0
            CHANNELS 3 Zrotation Xrotation Yrotation
            JOINT RightShoulder
            {
              OFFSET 2.46616 -1.6653 3.69651
              CHANNELS 3 Zrotation Xrotation Yrotation
              JOINT RightArm
              {
                OFFSET 13.0012 0 0
                CHANNELS 3 Zrotation Xrotation Yrotation
                JOINT RightForeArm
                {
                  OFFSET 28.7848 1.62311e-005 0
                  CHANNELS 3 Zrotation Xrotation Yrotation
                  JOINT RightHand
                  {
                    OFFSET 26.5688 1.62095e-005 0
                    CHANNELS 3 Zrotation Xrotation Yrotation
                    End Site
                    {
                      OFFSET 0 0 0
                    }
                  }
                }
              }
            }
            JOINT LeftShoulder
            {
              OFFSET 2.38034 -1.29275 -3.7523
              CHANNELS 3 Zrotation Xrotation Yrotation
              JOINT LeftArm
              {
                OFFSET 16.3182 6.07031e-005 0
                CHANNELS 3 Zrotation Xrotation Yrotation
                JOINT LeftForeArm
                {
                  OFFSET 27.0901 0 0
                  CHANNELS 3 Zrotation Xrotation Yrotation
                  JOINT LeftHand
                  {
                    OFFSET 24.5451 1.51738e-005 0
                    CHANNELS 3 Zrotation Xrotation Yrotation
                    End Site
                    {
                      OFFSET 0 0 0
                    }
                  }
                }
              }
            }
            JOINT Neck
            {
              OFFSET 5.0226 -0.0266342 0
              CHANNELS 3 Zrotation Xrotation Yrotation
              JOINT Head
              {
                OFFSET 6.69364 2.86102e-005 0
                CHANNELS 3 Zrotation Xrotation Yrotation
                End Site
                {
                  OFFSET 0 0 0
                }
              }
            }
          }
        }
      }
    }
  }
}
MOTION
Frames:	9
Frame Time:	0.0416667
-359.159 71.0799 -354.909 -99.9853 0.663906 -80.1232 -136.387 48.2106 163.404 80.0796 32.6049 -140.066 49.6743 -52.2362 85.9362 80.1328 -72.2113 -162.132 -173.54 -28.8574 118.888 -85.5866 74.815 54.0624 -4.67329 -6.64878 -0.478482 153.775 19.9166 9.50148 12.2829 5.66722 -95.1946 17.1628 21.5724 -14.2743 5.58675 20.9301 -15.2232 -18.269 24.8088 -6.84538 1.74361 24.8088 -6.84538 119.239 -8.26868 -32.2688 87.0436 -51.3793 39.4258 34.3899 -19.7367 -47.2853 -24.3187 -20.4926 75.3117 -14.0984 81.9573 21.6345 155.842 -46.6961 6.45399 -41.8596 -25.5591 -62.088 0.720931 -1.60972 -56.6749 12.7382 -68.7943 89.0989 -74.7029 -35.8373 -92.2414 
-359.365 70.8655 -355.062 -100.36 0.741182 -80.3129 -135.583 48.9577 163.408 82.1683 31.1503 -141.87 52.4366 -52.2101 90.4572 62.1231 -68.104 -177.734 -174.594 -27.8745 117.831 -86.8238 74.6207 52.3809 -4.53409 -6.50188 0.721654 155.387 20.3244 9.33595 12.3367 5.86015 -95.2406 16.7704 21.6926 -14.2622 5.19664 21.0507 -15.217 -18.6798 24.919 -6.79107 1.3329 24.919 -6.79106 119.57 -8.42648 -31.5684 85.4223 -52.7115 37.8934 34.1149 -19.9989 -47.4975 -24.0079 -20.4871 76.0963 -20.4399 81.7536 28.2976 156.068 -46.6676 6.06508 -40.6112 -24.9482 -60.5424 0.847454 -1.69489 -57.3332 15.9297 -67.8354 92.078 -75.9631 -35.1123 -92.3606 
-359.936 70.3433 -355.508 -101.42 0.967675 -80.8013 -133.51 50.9678 163.446 87.2583 27.2378 -146.343 59.7592 -50.9846 102.38 38.8544 -55.2167 163.952 -177.033 -25.3743 115.172 -90.5762 74.3635 48.9787 -4.32405 -6.21687 3.4432 159.846 21.3742 8.80146 12.4739 6.39906 -95.3671 15.6698 22.0027 -14.2144 4.1021 21.3625 -15.1847 -19.8288 25.1983 -6.6347 0.183802 25.1983 -6.63471 120.57 -9.05309 -29.6654 80.0509 -56.2901 32.8487 33.3854 -20.6474 -48.0543 -23.2344 -20.4539 78.0514 -35.7584 80.71 44.5297 156.776 -46.9724 5.06384 -37.2856 -22.6975 -56.1076 1.30737 -1.99693 -59.1813 23.5829 -64.8404 99.0908 -79.3869 -33.1936 -92.55 
-360.784 69.7267 -356.22 -103.093 1.36867 -81.4199 -130.82 53.8172 163.68 93.2867 21.9052 -151.929 68.6328 -46.0642 117.666 25.5219 -39.263 154.91 -179.708 -22.0513 111.68 -96.9541 74.6861 46.4738 -4.37388 -6.07719 6.23031 166.414 22.5415 7.78533 12.6561 7.2196 -95.557 13.9817 22.4196 -14.1099 2.42284 21.7834 -15.1014 -21.5847 25.5618 -6.38448 -1.57206 25.5618 -6.3845 122.325 -10.5185 -26.9048 68.883 -61.0699 22.4269 32.398 -21.4006 -48.8186 -22.2971 -20.3843 80.4299 -51.9302 78.2667 62.2673 158.164 -48.494 3.96723 -32.9067 -17.7235 -49.2027 2.33398 -2.67518 -61.9998 32.4105 -59.6454 106.804 -84.381 -30.6343 -92.5043 
-361.791 69.1805 -357.15 -105.37 2.01055 -81.9092 -128.288 57.0978 164.568 98.7077 16.6963 -157.558 74.8265 -35.2669 131.42 17.471 -24.0637 149.326 178.173 -18.3479 107.903 -106.701 76.1743 47.2072 -4.849 -6.31458 8.01486 174.177 22.557 6.18755 12.8584 8.2412 -95.7972 11.8654 22.8808 -13.9533 0.317057 22.2508 -14.9685 -23.7787 25.9514 -6.06686 -3.76608 25.9514 -6.06686 124.93 -13.1613 -23.6783 48.8499 -64.883 3.84432 31.3934 -22.0119 -49.5975 -21.4894 -20.3151 82.5283 -63.9303 74.5219 76.6469 160.725 -52.3609 3.65108 -29.0317 -8.71134 -40.4121 4.22486 -3.99011 -65.5105 40.2839 -52.5322 113.012 -90.3435 -28.0941 -92.0467 
-362.816 68.7542 -358.224 -108.361 2.98447 -81.8404 -126.992 60.6151 167.138 102.903 13.409 -162.855 76.4582 -17.5996 141.262 11.7968 -9.05007 144.716 177.099 -14.5506 104.417 -123.215 79.1491 55.3364 -5.73916 -7.04785 8.12063 -177.969 18.6888 4.14668 13.177 9.31562 -96.1288 9.66349 23.5292 -13.9533 -1.87212 22.8983 -15.0012 -26.0874 26.5656 -5.83029 -6.07475 26.5656 -5.83031 128.306 -16.5509 -19.9905 22.8714 -64.4838 -19.9905 30.5151 -22.4055 -50.0892 -21.049 -20.3229 83.8546 -72.2399 70.1241 88.693 166.445 -57.9543 6.61883 -28.4572 3.98539 -30.0648 7.21244 -6.27533 -69.4024 46.134 -45.7221 116.011 -96.7813 -25.8714 -91.5706 
-363.7 68.3478 -359.335 -112.661 4.18957 -80.1692 -130.293 64.8028 174.904 105.892 13.6492 -168.068 75.2293 6.42793 147.427 7.38179 6.79063 140.747 177.558 -11.293 102.645 -159.178 82.6214 84.0546 -7.12873 -8.32868 6.07467 -171.663 6.20959 2.35392 11.4437 11.4204 -95.6924 4.83448 20.534 -11.3592 -6.72982 20.0197 -12.27 -30.5103 22.9411 -4.40734 -10.4976 22.9411 -4.40732 131.842 -32.2675 -26.89 -19.3722 -58.3729 -51.9342 32.1513 -22.0918 -50.6968 -21.001 -20.4653 83.8219 -70.6473 60.0878 80.9027 5.29675 -67.027 -158.55 -22.3221 62.2112 -22.0154 12.0949 -8.87915 -70.9255 53.7192 -7.12428 117.644 -100.356 -28.6097 -81.3499 
-364.259 67.6351 -360.265 -120.834 4.3518 -73.4922 -157.071 69.4402 -153.44 107.962 18.1081 -174.821 76.035 33.3436 148.854 3.99491 22.226 137.729 -179.135 -11.1011 106.716 158.38 82.443 121.432 -10.1892 -10.7004 1.52847 -168.619 -15.5742 1.41523 10.1561 13.1058 -95.5253 1.22382 18.1676 -10.1786 -10.363 17.7043 -10.9815 -33.8863 20.3558 -4.06268 -13.8736 20.3558 -4.06267 130.025 -45.7173 -37.4505 -44.0863 -49.1602 -65.4079 34.0215 -22.5257 -50.0425 -21.6349 -20.7301 82.5487 -72.4129 53.626 80.5648 -12.1631 -9.86832 -163.367 147.337 54.1038 179.226 16.0905 -11.0528 -70.8509 67.1924 6.50145 95.9885 -102.342 -29.1216 -69.3828 
-364.34 66.3628 -360.646 -134.446 0.261806 -59.4115 154.757 58.0915 -101.885 111.549 25.8518 175.808 89.1932 55.8065 138.626 1.59159 34.5642 135.893 -170.976 -13.945 119.595 -163.185 79.6988 81.5107 -17.8474 -14.5197 -4.5055 -166.864 -35.7829 1.25745 9.46862 16.7219 -96.8318 -6.21519 16.544 -10.9966 -17.832 16.0471 -11.7197 -41.119 19.059 -5.39215 -21.1064 19.059 -5.39218 121.812 -46.6966 -50.4224 -63.1394 -25.9768 -75.3574 38.7214 -24.1153 -47.1583 -22.7431 -20.8192 79.8153 -77.5004 36.0415 103.836 -23.354 15.9795 -161.271 172.727 35.3001 -179.987 17.2045 -12.5357 -73.112 95.6155 33.151 76.2063 -99.8591 -35.1659 -57.7227 
